<svg width="150" height="26" viewBox="0 0 150 26" fill="none" xmlns="http://www.w3.org/2000/svg">
<path fill-rule="evenodd" clip-rule="evenodd" d="M38.2504 19.0482L38.5876 18.1542H33.3859L33.1949 18.4835C32.3628 19.9182 30.8707 20.7974 28.9427 20.7974C27.6276 20.7974 26.5387 20.396 25.7309 19.7016C25.0863 19.1474 24.5938 18.3836 24.3143 17.4273H38.5223L38.6144 16.8752C38.6863 16.4433 38.7225 16.0105 38.7225 15.5771C38.7225 10.0677 34.8336 5.5 28.9427 5.5C23.3436 5.5 19.1299 9.84076 19.1299 15.511C19.1299 21.2128 23.3421 25.5551 28.9427 25.5551C33.2227 25.5551 36.7353 23.0652 38.2504 19.0482ZM28.9427 10.1586C30.1833 10.1586 31.2235 10.5155 32.0226 11.1476C32.6345 11.6317 33.1279 12.2955 33.4603 13.1322H24.4775C25.1939 11.2677 26.8064 10.1586 28.9427 10.1586Z" fill="white"/>
<path fill-rule="evenodd" clip-rule="evenodd" d="M50.0157 10.2771L50.0137 10.2766L50.0116 10.2761C48.6112 9.93863 47.4235 9.65072 46.5747 9.20575C46.1614 8.9891 45.8712 8.75559 45.6843 8.49903C45.5051 8.25291 45.3965 7.95292 45.3965 7.54843C45.3965 6.86247 45.7258 6.32105 46.3295 5.92406C46.9529 5.51412 47.8651 5.2687 48.9317 5.2687C50.0315 5.2687 50.9596 5.55582 51.5963 6.04769C52.2146 6.52532 52.5991 7.22412 52.5991 8.17619V8.83698H57.6872V8.17619C57.6872 5.83804 56.885 3.87206 55.3533 2.49721C53.83 1.12995 51.6579 0.411865 49.0308 0.411865C46.4663 0.411865 44.2803 1.05684 42.7217 2.31839C41.1464 3.59334 40.2753 5.44853 40.2753 7.71363C40.2753 9.00049 40.5512 10.069 41.0504 10.9565C41.5489 11.8426 42.2502 12.5126 43.0492 13.0332C44.6045 14.0466 46.5994 14.5313 48.3283 14.9513L48.3807 14.964L48.4171 14.9727C49.8213 15.307 51.0254 15.5937 51.8932 16.0536C52.3186 16.279 52.6218 16.5262 52.8192 16.8042C53.01 17.0729 53.1278 17.4059 53.1278 17.8568C53.1278 18.6701 52.7369 19.3409 52.0532 19.8307C51.3567 20.3297 50.3588 20.6321 49.2291 20.6321C47.9852 20.6321 46.9349 20.2978 46.211 19.7255C45.5034 19.1662 45.0661 18.35 45.0661 17.2621V16.6013H39.8788V17.2621C39.8788 19.8016 40.8354 21.8983 42.5248 23.351C44.2036 24.7944 46.5495 25.5551 49.2621 25.5551C51.7142 25.5551 53.9763 24.917 55.6413 23.614C57.3249 22.2964 58.348 20.335 58.348 17.8238C58.348 15.0927 57.1667 13.3881 55.4856 12.2827C53.8966 11.2378 51.8674 10.7355 50.1182 10.3024L50.1181 10.3024L50.0157 10.2771ZM50.8707 4.91995C52.2941 5.42518 53.2599 6.53424 53.2599 8.17619H53.2601C53.2601 6.53421 52.2941 5.42515 50.8707 4.91995ZM47.2884 10.2208C48.0401 10.4808 48.9062 10.6894 49.8133 10.908L49.857 10.9185L49.9071 10.9309C50.9133 11.1802 51.9667 11.4411 52.9617 11.7968C51.9666 11.441 50.9132 11.1801 49.9069 10.9309L49.8568 10.9185L49.8131 10.9079C48.9061 10.6894 48.0401 10.4808 47.2884 10.2208ZM45.1188 24.1502C42.2836 23.0024 40.5398 20.5804 40.5398 17.2622H44.4053C44.4053 17.2621 44.4053 17.2621 44.4053 17.2621H40.5396C40.5396 17.4865 40.5476 17.7068 40.5634 17.9229C40.7805 20.9022 42.4753 23.08 45.1188 24.1502ZM47.1645 20.9714C47.7871 21.1835 48.4858 21.293 49.2292 21.293C51.7072 21.293 53.7887 19.9714 53.7887 17.8569C53.7887 16.3282 52.7062 15.5646 51.1708 15.0317C52.7061 15.5646 53.7886 16.3282 53.7886 17.8568C53.7886 19.9713 51.7071 21.2929 49.2291 21.2929C48.4857 21.2929 47.787 21.1835 47.1645 20.9714Z" fill="white"/>
<path fill-rule="evenodd" clip-rule="evenodd" d="M69.1192 25.5551C74.9265 25.5551 79.2954 21.2706 79.2954 15.511C79.2954 9.78299 74.9249 5.5 69.1192 5.5C63.2835 5.5 58.9099 9.74692 58.9099 15.511C58.9099 21.2721 63.2804 25.5551 69.1192 25.5551ZM69.1192 20.7313C66.0885 20.7313 63.965 18.5897 63.965 15.511C63.965 12.4679 66.086 10.3238 69.1192 10.3238C72.1168 10.3238 74.2403 12.4654 74.2403 15.511C74.2403 18.5922 72.1143 20.7313 69.1192 20.7313ZM71.0932 24.712C70.4604 24.8318 69.8007 24.8943 69.1193 24.8943C63.6347 24.8943 59.5708 20.8965 59.5708 15.511C59.5708 11.3036 62.0512 7.96338 65.7515 6.70332C62.0511 7.96336 59.5707 11.3036 59.5707 15.511C59.5707 20.8965 63.6346 24.8943 69.1192 24.8943C69.8006 24.8943 70.4604 24.8318 71.0932 24.712ZM71.178 21.0563C73.4291 20.275 74.9012 18.1955 74.9012 15.511C74.9012 12.1079 72.4893 9.66297 69.1193 9.66297C68.4811 9.66297 67.8779 9.74893 67.3188 9.91106C67.8779 9.74895 68.4811 9.663 69.1192 9.663C72.4892 9.663 74.9011 12.1079 74.9011 15.511C74.9011 18.1955 73.429 20.275 71.178 21.0563Z" fill="white"/>
<path fill-rule="evenodd" clip-rule="evenodd" d="M97.566 16.8989V5.92969H92.577V16.4033C92.577 17.8265 92.1949 18.9024 91.569 19.6134C90.9523 20.3138 90.0371 20.7315 88.8105 20.7315C87.5799 20.7315 86.6557 20.3192 86.0322 19.6219C85.4004 18.9154 85.011 17.8413 85.011 16.4033V5.92969H80.022V16.8989C80.022 19.4607 80.8762 21.6384 82.4367 23.1762C83.9965 24.7132 86.205 25.5553 88.8105 25.5553C91.4163 25.5553 93.6173 24.713 95.1692 23.1749C96.7214 21.6363 97.566 19.4588 97.566 16.8989ZM88.8105 24.8945C83.8876 24.8945 80.6828 21.7226 80.6828 16.8989V6.59048H80.6831V16.8988C80.6831 21.7226 83.8879 24.8944 88.8108 24.8944C89.5799 24.8944 90.3063 24.817 90.9845 24.6679C90.3062 24.817 89.5797 24.8945 88.8105 24.8945ZM93.2381 6.59048H93.2378V16.4033C93.2378 18.9688 92.0862 20.7281 90.0906 21.239C92.0864 20.7282 93.2381 18.9688 93.2381 16.4032V6.59048Z" fill="white"/>
<path fill-rule="evenodd" clip-rule="evenodd" d="M102.423 9.03517L101.828 6.59024H99.3504V6.59026H101.828L102.423 9.03519C102.423 9.03518 102.423 9.03518 102.423 9.03517ZM102.953 8.41671C104.181 7.14023 105.782 6.49114 107.908 6.49114H109.494V9.96028H109.494V6.49112H107.908C105.782 6.49112 104.181 7.14021 102.953 8.41671ZM104.009 11.3981C103.346 12.2355 103.018 13.4284 103.018 14.9493V24.4317H103.018V14.9493C103.018 13.4284 103.346 12.2355 104.009 11.3981ZM107.908 5.83032C105.778 5.83032 104.092 6.4464 102.771 7.66959L102.348 5.92944H98.6896V25.0925H103.679V14.9493C103.679 13.4192 104.031 12.3565 104.634 11.6805C105.225 11.0182 106.152 10.6211 107.544 10.6211H110.154V5.83032H107.908Z" fill="white"/>
<path fill-rule="evenodd" clip-rule="evenodd" d="M129.466 18.1042L129.652 17.2952H124.69L124.516 17.6901C123.661 19.638 122.01 20.7313 119.934 20.7313C117.157 20.7313 114.978 18.4803 114.978 15.511C114.978 12.5441 117.121 10.3238 119.934 10.3238C121.997 10.3238 123.738 11.4357 124.552 13.2389L124.728 13.6278H129.628L129.431 12.8116C128.366 8.40955 124.658 5.5 119.934 5.5C114.25 5.5 109.923 9.82669 109.923 15.511C109.923 21.1923 114.247 25.5551 119.934 25.5551C124.626 25.5551 128.436 22.5766 129.466 18.1042ZM125.121 17.956H125.121C124.411 19.5722 123.193 20.6803 121.654 21.1455C123.193 20.6803 124.411 19.5723 125.121 17.956ZM121.218 24.8132C120.8 24.8668 120.371 24.8943 119.934 24.8943C114.615 24.8943 110.584 20.8304 110.584 15.511C110.584 11.3553 113.044 7.98597 116.657 6.71073C113.044 7.98594 110.584 11.3552 110.584 15.511C110.584 20.8304 114.615 24.8943 119.934 24.8943C120.371 24.8943 120.8 24.8668 121.218 24.8132ZM128.789 12.9669C128.789 12.9669 128.789 12.967 128.789 12.967H125.154C124.229 10.9185 122.247 9.663 119.934 9.663C119.333 9.663 118.76 9.75244 118.226 9.91955C118.76 9.75242 119.333 9.66297 119.934 9.66297C122.247 9.66297 124.229 10.9185 125.154 12.9669H128.789Z" fill="white"/>
<path fill-rule="evenodd" clip-rule="evenodd" d="M149.528 19.0482L149.865 18.1542H144.663L144.472 18.4835C143.64 19.9182 142.148 20.7974 140.22 20.7974C138.905 20.7974 137.816 20.396 137.008 19.7016C136.364 19.1474 135.871 18.3836 135.592 17.4273H149.8L149.892 16.8752C149.964 16.4433 150 16.0105 150 15.5771C150 10.0677 146.111 5.5 140.22 5.5C134.621 5.5 130.407 9.84076 130.407 15.511C130.407 21.2128 134.62 25.5551 140.22 25.5551C144.5 25.5551 148.013 23.0652 149.528 19.0482ZM141.005 21.4123C142.786 21.2001 144.206 20.2605 145.044 18.815H145.044C144.206 20.2605 142.785 21.2 141.005 21.4123ZM140.917 24.8705C140.688 24.8863 140.455 24.8943 140.22 24.8943C135 24.8943 131.068 20.8634 131.068 15.511C131.068 10.6904 134.297 6.928 138.788 6.26482C134.297 6.9279 131.068 10.6903 131.068 15.511C131.068 20.8634 135 24.8943 140.22 24.8943C140.455 24.8943 140.687 24.8863 140.917 24.8705ZM149.24 16.7665H134.769C134.769 16.7665 134.769 16.7665 134.769 16.7665H149.24C149.24 16.7665 149.24 16.7665 149.24 16.7665ZM140.22 10.1586C141.461 10.1586 142.501 10.5155 143.3 11.1476C143.912 11.6317 144.405 12.2955 144.738 13.1322H135.755C136.471 11.2677 138.084 10.1586 140.22 10.1586ZM140.22 9.4978C142.731 9.4978 144.633 10.8276 145.443 13.1322C145.518 13.3443 145.583 13.5646 145.639 13.7929H145.639C144.978 11.0837 142.963 9.49777 140.22 9.49777C140.007 9.49777 139.799 9.50774 139.595 9.52735C139.799 9.50775 140.007 9.4978 140.22 9.4978Z" fill="white"/>
<path d="M15.3567 15.8999C15.2104 15.647 15.2787 15.3124 15.5264 15.1606C17.7118 13.8197 18.8665 11.3609 18.8665 8.63089C18.8665 3.52682 15.5977 0.478027 9.5325 0.478027H0.890958C0.492246 0.478027 0.240429 0.914439 0.435288 1.26796L2.46242 4.95064C2.55475 5.11826 2.72922 5.22248 2.91809 5.22248H8.90895C11.116 5.22248 12.5483 6.64387 12.5483 8.75096C12.5483 10.8922 11.2005 12.2453 8.92574 12.2453H7.35608C6.95736 12.2453 6.70614 12.6811 6.9004 13.0346L8.82681 16.5442H8.8412L12.447 23.1385C13.4914 25.0567 14.1318 25.5882 15.6313 25.5882C17.4342 25.5882 18.7148 24.3893 18.7148 22.7277C18.7148 21.9914 18.5967 21.4776 18.0577 20.5694L15.3567 15.8999Z" fill="white"/>
<path d="M3.04639 25.5882C4.72887 25.5882 6.09279 24.2016 6.09279 22.4912C6.09279 20.7808 4.72887 19.3943 3.04639 19.3943C1.36392 19.3943 0 20.7808 0 22.4912C0 24.2016 1.36392 25.5882 3.04639 25.5882Z" fill="white"/>
</svg>
